<svg xmlns="http://www.w3.org/2000/svg" viewBox="0 0 512 512">
  <defs>
    <linearGradient id="bg" x1="0" y1="0" x2="1" y2="1">
      <stop offset="0%" stop-color="#165c47"/>
      <stop offset="100%" stop-color="#1c5bb7"/>
    </linearGradient>
    <linearGradient id="card" x1="0" y1="0" x2="1" y2="1">
      <stop offset="0%" stop-color="#fffaf2"/>
      <stop offset="100%" stop-color="#efe4d1"/>
    </linearGradient>
  </defs>
  <rect width="512" height="512" fill="url(#bg)"/>
  <circle cx="384" cy="128" r="72" fill="#ffffff" fill-opacity="0.1"/>
  <circle cx="132" cy="408" r="92" fill="#ffffff" fill-opacity="0.08"/>
  <rect x="112" y="108" width="288" height="296" rx="88" fill="url(#card)"/>
  <path d="M176 300c0-55.229 44.771-100 100-100h4c55.229 0 100 44.771 100 100v20c0 30.928-25.072 56-56 56H232c-30.928 0-56-25.072-56-56z" fill="#1e7a5f"/>
  <rect x="196" y="226" width="120" height="34" rx="17" fill="#fffaf2"/>
  <circle cx="216" cy="342" r="24" fill="#201810"/>
  <circle cx="296" cy="342" r="24" fill="#201810"/>
  <path d="M296 180h74c9.941 0 18 8.059 18 18v54" fill="none" stroke="#1c5bb7" stroke-width="20" stroke-linecap="round"/>
  <path d="M334 130l54 54" fill="none" stroke="#c5631f" stroke-width="18" stroke-linecap="round"/>
  <path d="M350 126h46v46" fill="none" stroke="#c5631f" stroke-width="18" stroke-linecap="round"/>
</svg>
